<svg xmlns="http://www.w3.org/2000/svg" width="24" height="24" viewBox="0 0 24 24" fill="none">
<path d="M20 14.3077V11.6154C20 10.6973 19.6207 9.81687 18.9456 9.16771C18.2705 8.51854 17.3548 8.15385 16.4 8.15385H14.8C14.4817 8.15385 14.1765 8.03228 13.9515 7.81589C13.7264 7.5995 13.6 7.30602 13.6 7V5.46154C13.6 4.54348 13.2207 3.66303 12.5456 3.01386C11.8705 2.3647 10.9548 2 10 2H8M8 18.1538H13.6M7.73333 14.0513H16.2667M10.4 2H5.2C4.5376 2 4 2.51692 4 3.15385V20.8462C4 21.4831 4.5376 22 5.2 22H18.8C19.4624 22 20 21.4831 20 20.8462V11.2308C20 8.78262 18.9886 6.43473 17.1882 4.70363C15.3879 2.97252 12.9461 2 10.4 2Z" stroke="#4D5256" stroke-width="1.5" stroke-linecap="round" stroke-linejoin="round"/>
</svg>
