<svg xmlns="http://www.w3.org/2000/svg" width="24" height="24" viewBox="0 0 24 24" fill="none">
<path d="M11.5 4C9.81886 4 8.17547 4.49852 6.77766 5.43251C5.37984 6.3665 4.29037 7.69402 3.64703 9.24719C3.00368 10.8004 2.83535 12.5094 3.16333 14.1583C3.4913 15.8071 4.30085 17.3217 5.4896 18.5104C6.67834 19.6992 8.1929 20.5087 9.84173 20.8367C11.4906 21.1646 13.1996 20.9963 14.7528 20.353C16.306 19.7096 17.6335 18.6202 18.5675 17.2223C19.5015 15.8245 20 14.1811 20 12.5H11.5V4Z" stroke="#4D5256" stroke-width="1.5" stroke-linecap="round" stroke-linejoin="round"/>
<path d="M14 10H22C22 7.87827 21.1571 5.84344 19.6569 4.34315C18.1566 2.84285 16.1217 2 14 2V10Z" stroke="#4D5256" stroke-width="1.5" stroke-linecap="round" stroke-linejoin="round"/>
</svg>
