<svg xmlns="http://www.w3.org/2000/svg" width="24" height="24" viewBox="0 0 24 24" fill="none">
<path fill-rule="evenodd" clip-rule="evenodd" d="M9.75 2.5H11.75C12.5784 2.5 13.25 3.17157 13.25 4V5.5H8.25V4C8.25 3.17157 8.92157 2.5 9.75 2.5ZM6.84451 3.25C7.17755 1.95608 8.35212 1 9.75 1H11.75C13.1479 1 14.3225 1.95608 14.6555 3.25H16.75C18.2688 3.25 19.5 4.48122 19.5 6V11C19.5 11.4142 19.1642 11.75 18.75 11.75C18.3358 11.75 18 11.4142 18 11V6C18 5.30964 17.4404 4.75 16.75 4.75H14.75V6C14.75 6.55228 14.3023 7 13.75 7H7.75C7.19772 7 6.75 6.55228 6.75 6V4.75H4.75C4.05964 4.75 3.5 5.30964 3.5 6V20C3.5 20.6904 4.05964 21.25 4.75 21.25H10.25C10.6642 21.25 11 21.5858 11 22C11 22.4142 10.6642 22.75 10.25 22.75H4.75C3.23122 22.75 2 21.5188 2 20V6C2 4.48122 3.23122 3.25 4.75 3.25H6.84451ZM5.75 10.25C5.75 9.83579 6.08579 9.5 6.5 9.5H15C15.4142 9.5 15.75 9.83579 15.75 10.25C15.75 10.6642 15.4142 11 15 11H6.5C6.08579 11 5.75 10.6642 5.75 10.25ZM6.5 13.5C6.08579 13.5 5.75 13.8358 5.75 14.25C5.75 14.6642 6.08579 15 6.5 15H10C10.4142 15 10.75 14.6642 10.75 14.25C10.75 13.8358 10.4142 13.5 10 13.5H6.5ZM16.25 21.5C18.4591 21.5 20.25 19.7091 20.25 17.5C20.25 15.2909 18.4591 13.5 16.25 13.5C14.0409 13.5 12.25 15.2909 12.25 17.5C12.25 19.7091 14.0409 21.5 16.25 21.5ZM16.25 23C19.2876 23 21.75 20.5376 21.75 17.5C21.75 14.4624 19.2876 12 16.25 12C13.2124 12 10.75 14.4624 10.75 17.5C10.75 20.5376 13.2124 23 16.25 23ZM15.5508 15.75C15.5508 15.3358 15.8866 15 16.3008 15C16.715 15 17.0508 15.3358 17.0508 15.75V17.25C17.0508 17.6642 16.715 18 16.3008 18C15.8866 18 15.5508 17.6642 15.5508 17.25V15.75ZM17.0508 19.25C17.0508 19.6642 16.715 20 16.3008 20C15.8866 20 15.5508 19.6642 15.5508 19.25C15.5508 18.8358 15.8866 18.5 16.3008 18.5C16.715 18.5 17.0508 18.8358 17.0508 19.25Z" fill="#4D5256"/>
</svg>
