<svg xmlns="http://www.w3.org/2000/svg" width="19" height="20" viewBox="0 0 19 20" fill="none">
<path d="M13.25 4.75C13.25 5.74456 12.8549 6.69839 12.1516 7.40165C11.4484 8.10491 10.4946 8.5 9.5 8.5C8.50544 8.5 7.55161 8.10491 6.84835 7.40165C6.14509 6.69839 5.75 5.74456 5.75 4.75C5.75 3.75544 6.14509 2.80161 6.84835 2.09835C7.55161 1.39509 8.50544 1 9.5 1C10.4946 1 11.4484 1.39509 12.1516 2.09835C12.8549 2.80161 13.25 3.75544 13.25 4.75Z" stroke="#4D5256" stroke-width="1.5" stroke-linecap="round" stroke-linejoin="round"/>
<path d="M3.53807 14.0434C1.94798 15.3529 1.03642 17.133 1 19H18C17.9636 17.133 17.052 15.3529 15.4619 14.0434C13.8718 12.7339 11.7306 12 9.5 12C7.2694 12 5.12817 12.7339 3.53807 14.0434Z" stroke="#4D5256" stroke-width="1.5" stroke-linecap="round" stroke-linejoin="round"/>
</svg>
