<svg width="24" height="24" viewBox="0 0 24 24" fill="none" xmlns="http://www.w3.org/2000/svg">
<rect width="24" height="24" rx="12" fill="#E9D8A1"/>
<path d="M15 8.25C15 9.04565 14.6839 9.80871 14.1213 10.3713C13.5587 10.9339 12.7956 11.25 12 11.25C11.2044 11.25 10.4413 10.9339 9.87868 10.3713C9.31607 9.80871 9 9.04565 9 8.25C9 7.45435 9.31607 6.69129 9.87868 6.12868C10.4413 5.56607 11.2044 5.25 12 5.25C12.7956 5.25 13.5587 5.56607 14.1213 6.12868C14.6839 6.69129 15 7.45435 15 8.25Z" fill="#F9F5E6"/>
<path d="M7.26553 15.0325C6.0028 16.0146 5.27893 17.3498 5.25 18.75H18.75C18.7211 17.3498 17.9972 16.0146 16.7345 15.0325C15.4717 14.0504 13.7714 13.5 12 13.5C10.2286 13.5 8.52825 14.0504 7.26553 15.0325Z" fill="#F9F5E6"/>
</svg>
