<svg xmlns="http://www.w3.org/2000/svg" width="23" height="21" viewBox="0 0 23 21" fill="none">
<path d="M15.25 4.75C15.25 5.74456 14.8549 6.69839 14.1516 7.40165C13.4484 8.10491 12.4946 8.5 11.5 8.5C10.5054 8.5 9.55161 8.10491 8.84835 7.40165C8.14509 6.69839 7.75 5.74456 7.75 4.75C7.75 3.75544 8.14509 2.80161 8.84835 2.09835C9.55161 1.39509 10.5054 1 11.5 1C12.4946 1 13.4484 1.39509 14.1516 2.09835C14.8549 2.80161 15.25 3.75544 15.25 4.75Z" stroke="#4D5256" stroke-width="1.5" stroke-linecap="round" stroke-linejoin="round"/>
<path d="M8.5 15.75C8.5 16.7446 8.10491 17.6984 7.40165 18.4017C6.69839 19.1049 5.74456 19.5 4.75 19.5C3.75544 19.5 2.80161 19.1049 2.09835 18.4017C1.39509 17.6984 1 16.7446 1 15.75C1 14.7554 1.39509 13.8016 2.09835 13.0983C2.80161 12.3951 3.75544 12 4.75 12C5.74456 12 6.69839 12.3951 7.40165 13.0983C8.10491 13.8016 8.5 14.7554 8.5 15.75Z" stroke="#4D5256" stroke-width="1.5" stroke-linecap="round" stroke-linejoin="round"/>
<path d="M21.5 15.75C21.5 16.7446 21.1049 17.6984 20.4016 18.4017C19.6984 19.1049 18.7446 19.5 17.75 19.5C16.7554 19.5 15.8016 19.1049 15.0983 18.4017C14.3951 17.6984 14 16.7446 14 15.75C14 14.7554 14.3951 13.8016 15.0983 13.0983C15.8016 12.3951 16.7554 12 17.75 12C18.7446 12 19.6984 12.3951 20.4016 13.0983C21.1049 13.8016 21.5 14.7554 21.5 15.75Z" stroke="#4D5256" stroke-width="1.5" stroke-linecap="round" stroke-linejoin="round"/>
<line x1="8" y1="15.25" x2="14" y2="15.25" stroke="#4D5256" stroke-width="1.5"/>
<line y1="-0.75" x2="5.65685" y2="-0.75" transform="matrix(0.507184 0.861838 0.861838 -0.507184 14.5625 6.5625)" stroke="#4D5256" stroke-width="1.5"/>
<line x1="8.51357" y1="7.38039" x2="5.6445" y2="12.2557" stroke="#4D5256" stroke-width="1.5"/>
</svg>
